<svg xmlns="http://www.w3.org/2000/svg" width="34" height="34" viewBox="0 0 34 34">
  <g id="icon-adobe-photoshop" transform="translate(1 1)">
    <rect id="Rectangle_1823" data-name="Rectangle 1823" width="34" height="34" transform="translate(-1 -1)" fill="red" opacity="0"/>
    <g id="Layer_3_xA0_Image_1_" transform="translate(0.04 0.45)">
      <path id="Path_16" data-name="Path 16" d="M33.92,7.125V27.778c-.012.125-.02.248-.038.371a5.653,5.653,0,0,1-4.534,4.765c-.156.03-.313.058-.469.087H7.072a.229.229,0,0,0-.065-.024,5.5,5.5,0,0,1-1.944-.6A5.687,5.687,0,0,1,2.612,29.9a5.446,5.446,0,0,1-.522-1.623c-.026-.155-.059-.31-.09-.466V7.125c.03-.166.065-.331.091-.5a5.388,5.388,0,0,1,.527-1.622A5.592,5.592,0,0,1,3.837,3.394a5.7,5.7,0,0,1,1.3-.9A5.5,5.5,0,0,1,6.9,1.955c.118-.015.235-.036.354-.055H28.7a.2.2,0,0,0,.053.021c.205.027.413.039.614.08a5.619,5.619,0,0,1,3.068,1.71,5.512,5.512,0,0,1,1.055,1.631A4.866,4.866,0,0,1,33.9,7.054.28.28,0,0,0,33.92,7.125Z" transform="translate(-2 -1.9)" fill="#001e36"/>
    </g>
    <g id="Layer_4_xA0_Image_1_" transform="translate(6.371 8.45)">
      <path id="Path_17" data-name="Path 17" d="M423.4,551.9c.115.006.232.006.346.018.4.041.8.064,1.186.135a5.125,5.125,0,0,1,2.749,1.343,4.189,4.189,0,0,1,1.128,1.988,4.922,4.922,0,0,1,.164,1.225,4.978,4.978,0,0,1-.58,2.533,4.392,4.392,0,0,1-2.112,1.871,6.218,6.218,0,0,1-1.437.413,11.56,11.56,0,0,1-2.22.135c-.267,0-.535-.017-.816-.024v4.241c0,.155-.062.217-.214.217h-2.483c-.131,0-.167-.026-.208-.141V552.1c.023-.058.049-.109.125-.111.594-.015,1.186-.032,1.78-.044.556-.012,1.112-.021,1.666-.033a.389.389,0,0,0,.059-.009C422.819,551.9,423.108,551.9,423.4,551.9Zm-1.573,7.117c.123.006.238.015.354.017a8.4,8.4,0,0,0,1.768-.077,3.66,3.66,0,0,0,.992-.3,1.883,1.883,0,0,0,.969-1,2.555,2.555,0,0,0,.1-1.473,1.847,1.847,0,0,0-1.15-1.367,3.5,3.5,0,0,0-1.315-.272c-.521-.008-1.042,0-1.564.006a1.292,1.292,0,0,0-.149.018Z" transform="translate(-418.9 -551.9)" fill="#31a8ff"/>
      <path id="Path_18" data-name="Path 18" d="M1174.6,778.375v-1.146c0-.158.074-.206.21-.126a6.327,6.327,0,0,0,2.056.735,5.854,5.854,0,0,0,1.447.094,2.212,2.212,0,0,0,.77-.169.583.583,0,0,0,.176-.97,1.916,1.916,0,0,0-.621-.4c-.442-.188-.891-.36-1.332-.548a6.534,6.534,0,0,1-1.531-.881,2.978,2.978,0,0,1-1-1.365,2.9,2.9,0,0,1-.153-.873,3.114,3.114,0,0,1,.4-1.646,3.212,3.212,0,0,1,1.358-1.272,4.469,4.469,0,0,1,1.569-.459,8.06,8.06,0,0,1,1.506-.027c.4.029.794.07,1.188.125a4.031,4.031,0,0,1,.99.282.244.244,0,0,1,.152.249c0,.737,0,1.473,0,2.21a.128.128,0,0,1-.115.141.321.321,0,0,1-.234-.024,5.256,5.256,0,0,0-1.566-.5,7.523,7.523,0,0,0-1.2-.111,2.626,2.626,0,0,0-.812.112.605.605,0,0,0-.459.573.54.54,0,0,0,.15.386,1.576,1.576,0,0,0,.487.366,14.454,14.454,0,0,0,1.392.6,7.452,7.452,0,0,1,1.787.958,2.665,2.665,0,0,1,1.048,1.6,3.511,3.511,0,0,1,.053,1.04,2.947,2.947,0,0,1-.469,1.38,3.282,3.282,0,0,1-1.513,1.241,5.394,5.394,0,0,1-1.493.38,8.714,8.714,0,0,1-1.476.033,8.334,8.334,0,0,1-1.795-.278,8.518,8.518,0,0,1-.806-.293.266.266,0,0,1-.176-.273C1174.6,779.134,1174.6,778.754,1174.6,778.375Z" transform="translate(-1163.122 -766)" fill="#31a8ff"/>
    </g>
  </g>
</svg>
