<svg xmlns="http://www.w3.org/2000/svg" width="34" height="34" viewBox="0 0 34 34">
  <g id="icon-adobe-xd" transform="translate(1 1)">
    <rect id="Rectangle_1824" data-name="Rectangle 1824" width="34" height="34" transform="translate(-1 -1)" fill="red" opacity="0"/>
    <path id="Path_23" data-name="Path 23" d="M31.519,5.224V25.876c-.012.125-.02.248-.038.371a5.653,5.653,0,0,1-4.534,4.765c-.156.03-.313.058-.469.087H4.671a.229.229,0,0,0-.065-.024,5.5,5.5,0,0,1-1.944-.6A5.687,5.687,0,0,1,.211,28a5.446,5.446,0,0,1-.522-1.623c-.024-.156-.059-.313-.088-.468V5.222c.03-.166.065-.331.091-.5A5.388,5.388,0,0,1,.218,3.1,5.565,5.565,0,0,1,1.438,1.491a5.7,5.7,0,0,1,1.3-.9A5.508,5.508,0,0,1,4.5.055C4.617.039,4.734.018,4.853,0H26.3a.2.2,0,0,0,.053.021c.205.027.413.039.614.08a5.619,5.619,0,0,1,3.068,1.71,5.512,5.512,0,0,1,1.055,1.631A4.866,4.866,0,0,1,31.5,5.154.289.289,0,0,0,31.519,5.224Z" transform="translate(0.44 0.45)" fill="#470137"/>
    <g id="Group_11" data-name="Group 11" transform="translate(4.888 8.451)">
      <path id="Path_24" data-name="Path 24" d="M1146.992,540c-.023.141-.123.2-.244.248a10.441,10.441,0,0,1-2.535.659,9.41,9.41,0,0,1-2.2.079,5.262,5.262,0,0,1-3.64-1.722,4.655,4.655,0,0,1-1.025-2.122,6.848,6.848,0,0,1-.115-2.067,5.244,5.244,0,0,1,1.743-3.462,5.6,5.6,0,0,1,2.975-1.385,7.951,7.951,0,0,1,1.936-.071c.02,0,.039,0,.085,0v-.19q0-1.9,0-3.807c0-.1-.027-.216.106-.264h2.738c.1.061.1.158.1.26q0,6.316,0,12.633c0,.384.05.768.076,1.151Zm-3.022-7.327a3.253,3.253,0,0,0-1.83.082,2.64,2.64,0,0,0-1.816,1.841,3.678,3.678,0,0,0,.147,2.366,2.218,2.218,0,0,0,1.241,1.269,4.223,4.223,0,0,0,2.07.191c.144-.014.192-.074.192-.226-.006-1.784,0-3.569,0-5.352C1143.97,532.8,1143.97,532.741,1143.97,532.677Z" transform="translate(-1124.768 -525.9)" fill="#ff61f6"/>
      <path id="Path_25" data-name="Path 25" d="M325,606.419c.269-.528.519-1.042.787-1.546.576-1.086,1.169-2.163,1.733-3.256a.5.5,0,0,1,.533-.316c.832.018,1.666,0,2.5.009a.284.284,0,0,1,.2.074c.024.033-.02.135-.056.194q-1.884,3.116-3.774,6.228a.244.244,0,0,0,0,.3q2,3.264,3.983,6.536a1.617,1.617,0,0,1,.114.311,2.393,2.393,0,0,1-.308.044c-.9,0-1.8,0-2.708,0-.079,0-.158-.006-.238,0a.431.431,0,0,1-.415-.273c-.84-1.582-1.689-3.162-2.534-4.741a.9.9,0,0,0-.049-.076c-.026.044-.049.079-.068.114q-1.294,2.426-2.585,4.852a.246.246,0,0,1-.235.147c-.263,0-.525.006-.788.008-.714,0-1.427,0-2.141,0-.038,0-.076,0-.15-.009a1.253,1.253,0,0,1,.085-.255q1.813-2.984,3.634-5.966c.1-.164.194-.334.3-.492a.2.2,0,0,0,0-.247q-1.927-3.253-3.848-6.51c-.1-.175-.074-.246.114-.246,1.007,0,2.012.006,3.019.008a.275.275,0,0,1,.267.178c.668,1.523,1.582,2.916,2.345,4.387C324.809,606.047,324.9,606.221,325,606.419Z" transform="translate(-318.8 -600.155)" fill="#ff61f6"/>
    </g>
  </g>
</svg>
