<svg xmlns="http://www.w3.org/2000/svg" width="24" height="26" viewBox="0 0 24 26">
  <g id="icon-play" transform="translate(-8569 2504)">
    <g id="Group_179" data-name="Group 179" opacity="0">
      <rect id="Rectangle_81" data-name="Rectangle 81" width="24" height="26" transform="translate(8569 -2504)" fill="#fff"/>
      <rect id="Rectangle_82" data-name="Rectangle 82" width="20" height="18" transform="translate(8571 -2500)" fill="#d58484"/>
    </g>
    <path id="Union_2" data-name="Union 2" d="M129.493-135.378a1.2,1.2,0,0,1-.464-.737l-.028.02-.016-15.734.03.021a1.17,1.17,0,0,1,.478-.814,1.978,1.978,0,0,1,2.325,0l9.872,7.714a1.1,1.1,0,0,1,0,1.817l-9.872,7.714a1.9,1.9,0,0,1-1.165.378A1.883,1.883,0,0,1,129.493-135.378Z" transform="translate(8445.016 -2347)"/>
  </g>
</svg>
